Coordinates
version=1
nRows=32
nColumns=22
inDegrees=yes

Units are S.I. units (second, meters, Newtons, ...)
If the header above contains a line with 'inDegrees', this indicates whether rotational values are in degrees (yes) or radians (no).

endheader
time	pelvis_tilt	pelvis_list	pelvis_rotation	pelvis_tx	pelvis_ty	pelvis_tz	hip_flexion_r	hip_adduction_r	hip_rotation_r	knee_angle_r	ankle_angle_r	subtalar_angle_r	hip_flexion_l	hip_adduction_l	hip_rotation_l	knee_angle_l	ankle_angle_l	subtalar_angle_l	lumbar_extension	lumbar_bending	lumbar_rotation
      0.01000000	      1.35455208	     -0.92776487	      1.08107308	     -1.72103042	      1.08206519	     -0.34510453	     -3.50646859	      1.45388449	     -4.02849898	     -8.29695391	     10.58429503	     -2.89641934	     -2.41047090	      0.23771156	     -0.26121541	    -10.73116060	     12.47022966	     -1.85543308	     -3.43721337	     -1.58717642	     -5.41771553
      0.02000000	      1.34988619	     -0.92885007	      1.08441172	     -1.72097018	      1.08206022	     -0.34514149	     -3.51910691	      1.45353948	     -4.04159498	     -8.27017802	     10.57751715	     -2.89842189	     -2.41357690	      0.23809195	     -0.26873510	    -10.72303476	     12.47334184	     -1.85583198	     -3.41685074	     -1.56651829	     -5.40528291
      0.03000000	      1.34360821	     -0.92969452	      1.09381338	     -1.72090420	      1.08205250	     -0.34518151	     -3.53306207	      1.45442533	     -4.05381492	     -8.23935467	     10.57035766	     -2.90012928	     -2.41719489	      0.23748129	     -0.27391620	    -10.71004519	     12.47263121	     -1.85539337	     -3.39325452	     -1.54576119	     -5.39371172
      0.04000000	      1.33694762	     -0.93044152	      1.10250985	     -1.72083886	      1.08204194	     -0.34522733	     -3.54756801	      1.45453628	     -4.06771861	     -8.20638677	     10.56235986	     -2.90212901	     -2.42105785	      0.23760161	     -0.27582943	    -10.69640485	     12.46973279	     -1.85439938	     -3.36831550	     -1.52259168	     -5.38296612
      0.05000000	      1.33107844	     -0.93187839	      1.11696602	     -1.72077480	      1.08203176	     -0.34527953	     -3.56264112	      1.45639616	     -4.08228117	     -8.17482373	     10.55107914	     -2.90521607	     -2.42517324	      0.23668108	     -0.27422209	    -10.68276394	     12.46572261	     -1.85310257	     -3.34335630	     -1.49990710	     -5.37358459
      0.06000000	      1.32704184	     -0.93073857	      1.12848801	     -1.72072634	      1.08202043	     -0.34534303	     -3.57538118	      1.45395665	     -4.09865659	     -8.14895276	     10.54513271	     -2.90827897	     -2.42804777	      0.23983760	     -0.27160923	    -10.67401511	     12.46371064	     -1.85230242	     -3.32325747	     -1.47627230	     -5.36557280
      0.07000000	      1.32531494	     -0.92809935	      1.14054229	     -1.72067823	      1.08200953	     -0.34540925	     -3.58763907	      1.44954320	     -4.11513069	     -8.12899898	     10.54268882	     -2.91084886	     -2.43105955	      0.24464614	     -0.26784586	    -10.66935151	     12.46318434	     -1.85198495	     -3.30501676	     -1.45490069	     -5.35872568
      0.08000000	      1.32811407	     -0.92308316	      1.15055068	     -1.72065184	      1.08200470	     -0.34547533	     -3.59318523	      1.44187858	     -4.11567021	     -8.13045146	     10.54235883	     -2.91130285	     -2.43409312	      0.25220484	     -0.26815280	    -10.67111384	     12.46315157	     -1.85184706	     -3.29484330	     -1.43641791	     -5.35452212
      0.09000000	      1.33843497	     -0.91822749	      1.18687710	     -1.72058023	      1.08201061	     -0.34558403	     -3.62338726	      1.43617260	     -4.16350019	     -8.10553804	     10.54119624	     -2.91488878	     -2.44872495	      0.25970239	     -0.22946018	    -10.66696285	     12.46727642	     -1.85294622	     -3.28566393	     -1.41822301	     -5.37260610
      0.10000000	      1.34454810	     -0.91340549	      1.19812613	     -1.72052740	      1.08201271	     -0.34564971	     -3.63121163	      1.42915156	     -4.16168068	     -8.11222140	     10.54140082	     -2.91502821	     -2.45435169	      0.26683863	     -0.22980577	    -10.67227161	     12.46685723	     -1.85285010	     -3.27085322	     -1.40262423	     -5.36770373
      0.11000000	      1.35207275	     -0.90824786	      1.21030998	     -1.72046880	      1.08201674	     -0.34572072	     -3.64035847	      1.42172824	     -4.16013829	     -8.11978243	     10.54231993	     -2.91510042	     -2.46067811	      0.27471546	     -0.22914472	    -10.67862842	     12.46659547	     -1.85274453	     -3.25493397	     -1.38703156	     -5.36228783
      0.12000000	      1.39620947	     -0.88347791	      1.23967163	     -1.72039730	      1.08206573	     -0.34582957	     -3.68924999	      1.39333936	     -4.19965088	     -8.13109841	     10.58332164	     -2.90812913	     -2.50964586	      0.30454397	     -0.18873707	    -10.67937415	     12.46999554	     -1.85337508	     -3.28091570	     -1.39305952	     -5.37130003
      0.13000000	      1.40644542	     -0.87856810	      1.25294155	     -1.72033342	      1.08207570	     -0.34590335	     -3.69906402	      1.38650466	     -4.19574176	     -8.14309875	     10.58206830	     -2.90814899	     -2.51740580	      0.31210694	     -0.18784969	    -10.68757008	     12.46870393	     -1.85318771	     -3.26214807	     -1.37802975	     -5.36609868
      0.14000000	      1.45284622	     -0.85412084	      1.27086758	     -1.72029230	      1.08213311	     -0.34599701	     -3.73511467	      1.35780075	     -4.22215404	     -8.17847176	     10.60940482	     -2.90526245	     -2.56660436	      0.34216656	     -0.15736541	    -10.69003563	     12.46102697	     -1.85404450	     -3.29036749	     -1.38282213	     -5.36214277
      0.15000000	      1.47196900	     -0.84634581	      1.28086718	     -1.72026330	      1.08215603	     -0.34607432	     -3.74434164	      1.34746034	     -4.21625124	     -8.20545923	     10.60841701	     -2.90554107	     -2.57825887	      0.35414750	     -0.14598090	    -10.70706681	     12.45760707	     -1.85415482	     -3.28307652	     -1.36837125	     -5.35690311
      0.16000000	      1.49607968	     -0.83421310	      1.29188284	     -1.72024842	      1.08218059	     -0.34615060	     -3.74827862	      1.33200332	     -4.21871946	     -8.25180033	     10.61726523	     -2.90784451	     -2.59771026	      0.37022881	     -0.13177481	    -10.71824977	     12.45750340	     -1.85501814	     -3.28254801	     -1.35959187	     -5.35150027
      0.17000000	      1.52209750	     -0.81838912	      1.30350219	     -1.72023115	      1.08220490	     -0.34622476	     -3.74975352	      1.31285466	     -4.22988221	     -8.30677917	     10.63809312	     -2.91275916	     -2.62291561	      0.39014980	     -0.11745256	    -10.72308611	     12.45756263	     -1.85645777	     -3.28215726	     -1.35620213	     -5.34647447
      0.18000000	      1.54712461	     -0.80192364	      1.31762048	     -1.72021735	      1.08222557	     -0.34630095	     -3.74922620	      1.29322314	     -4.23934566	     -8.36316790	     10.66159288	     -2.91961682	     -2.64779211	      0.41004212	     -0.10300061	    -10.72616626	     12.45578392	     -1.85792368	     -3.27967908	     -1.35434949	     -5.34319297
      0.19000000	      1.57114137	     -0.78600172	      1.33302152	     -1.72020637	      1.08224356	     -0.34637930	     -3.74600529	      1.27418188	     -4.24718448	     -8.42217868	     10.68553496	     -2.92828855	     -2.67243336	      0.42905108	     -0.08782095	    -10.72755370	     12.45404389	     -1.85935267	     -3.27536383	     -1.35249550	     -5.34019133
      0.20000000	      1.59462228	     -0.77012809	      1.35041835	     -1.72019803	      1.08225835	     -0.34646161	     -3.74094039	      1.25521312	     -4.25505833	     -8.48355682	     10.71134232	     -2.93880359	     -2.69699113	      0.44790390	     -0.07137049	    -10.72797417	     12.45259124	     -1.86077608	     -3.27015665	     -1.35160820	     -5.33639805
      0.21000000	      1.61750715	     -0.75402820	      1.36961989	     -1.72018876	      1.08227122	     -0.34654967	     -3.73523973	      1.23583708	     -4.26462148	     -8.54506106	     10.73873687	     -2.95074730	     -2.72152891	      0.46718454	     -0.05357349	    -10.72759946	     12.45146320	     -1.86227878	     -3.26383394	     -1.35166185	     -5.33200088
      0.22000000	      1.64100564	     -0.72739952	      1.39192798	     -1.72015696	      1.08228051	     -0.34665314	     -3.73488267	      1.20396716	     -4.29832471	     -8.60053908	     10.78816494	     -2.97396876	     -2.75067364	      0.49859756	     -0.02837584	    -10.72243697	     12.44496269	     -1.86631600	     -3.25453449	     -1.36361693	     -5.32777805
      0.23000000	      1.66286862	     -0.71304857	      1.41696757	     -1.72014676	      1.08229266	     -0.34675217	     -3.73356804	      1.18658726	     -4.31172223	     -8.65240708	     10.80911372	     -2.98919970	     -2.77374304	      0.51618051	     -0.00486119	    -10.72168294	     12.44265159	     -1.87033463	     -3.24686154	     -1.36304584	     -5.32700028
      0.24000000	      1.68282129	     -0.70376370	      1.43763712	     -1.72013112	      1.08230135	     -0.34683672	     -3.73343551	      1.17542527	     -4.31468684	     -8.69823541	     10.82049304	     -2.99647041	     -2.79314880	      0.52790438	      0.01296117	    -10.72579057	     12.44340847	     -1.87269980	     -3.23673736	     -1.35846918	     -5.32853637
      0.25000000	      1.70370261	     -0.68929441	      1.46465370	     -1.72011521	      1.08230898	     -0.34693512	     -3.73670209	      1.15845480	     -4.33545179	     -8.74204659	     10.84794905	     -3.00762962	     -2.81627141	      0.54566436	      0.04100032	    -10.72270769	     12.44506366	     -1.87711092	     -3.22898587	     -1.35970694	     -5.32845332
      0.26000000	      1.71514314	     -0.68501571	      1.48499232	     -1.72007745	      1.08230863	     -0.34701435	     -3.74545165	      1.15454167	     -4.33045062	     -8.75678553	     10.84753189	     -3.00838250	     -2.82574286	      0.55142917	      0.04032662	    -10.72856119	     12.44463044	     -1.87733784	     -3.20625984	     -1.35093834	     -5.32428226
      0.27000000	      1.72640603	     -0.68038506	      1.50431030	     -1.72004836	      1.08230796	     -0.34708813	     -3.75328221	      1.15003967	     -4.32563226	     -8.77314657	     10.84791050	     -3.00950054	     -2.83504432	      0.55689404	      0.04171330	    -10.73356807	     12.44462823	     -1.87766404	     -3.18619365	     -1.34300354	     -5.32121741
      0.28000000	      1.75417900	     -0.65084178	      1.54354262	     -1.72004351	      1.08232153	     -0.34719885	     -3.76515781	      1.11844604	     -4.36859192	     -8.81928190	     10.89677043	     -3.03868161	     -2.87182218	      0.59178975	      0.11059185	    -10.71858102	     12.44367968	     -1.88864054	     -3.19444379	     -1.36310507	     -5.34554124
      0.29000000	      1.76417211	     -0.64723084	      1.55669194	     -1.72001171	      1.08232023	     -0.34725498	     -3.77312409	      1.11532063	     -4.36444193	     -8.83188609	     10.89519305	     -3.03967257	     -2.88053534	      0.59607312	      0.11035499	    -10.72463131	     12.44273416	     -1.88896429	     -3.17446262	     -1.35573116	     -5.34405320
      0.30000000	      1.77407531	     -0.64333270	      1.56862938	     -1.71998233	      1.08231934	     -0.34731066	     -3.77964932	      1.11133208	     -4.36125775	     -8.84548366	     10.89455557	     -3.04115148	     -2.89005072	      0.60085620	      0.11130694	    -10.72951991	     12.44206959	     -1.88939099	     -3.15626574	     -1.34836809	     -5.34318982
      0.31000000	      1.78411765	     -0.63948445	      1.57766851	     -1.71995359	      1.08232010	     -0.34735893	     -3.78529957	      1.10706525	     -4.35963675	     -8.85965196	     10.89489634	     -3.04281086	     -2.90004648	      0.60571016	      0.11304042	    -10.73390960	     12.44160415	     -1.88980734	     -3.13870124	     -1.34148780	     -5.34235918
      0.32000000	      1.80611092	     -0.62434906	      1.57594178	     -1.71995648	      1.08233415	     -0.34740095	     -3.77394104	      1.08598011	     -4.38678780	     -8.92634354	     10.91888132	     -3.06087768	     -2.93666124	      0.62504335	      0.13661887	    -10.71119339	     12.44192026	     -1.89487133	     -3.14248498	     -1.34472166	     -5.34580965
